<svg width="46" height="32" viewBox="0 0 46 32" fill="none" xmlns="http://www.w3.org/2000/svg">
<path d="M0 31.56V0H11.4683C14.9058 0 17.7803 0.711211 20.0917 2.13363C22.4032 3.52642 24.1367 5.42299 25.2925 7.82333C26.4482 10.194 27.026 12.8314 27.026 15.7356C27.026 18.936 26.3889 21.7216 25.1147 24.0923C23.8404 26.463 22.0327 28.3003 19.6917 29.6042C17.3506 30.9081 14.6095 31.56 11.4683 31.56H0ZM20.8474 15.7356C20.8474 13.6908 20.477 11.898 19.7361 10.357C18.9953 8.78643 17.9285 7.57144 16.5357 6.71206C15.1429 5.82304 13.4538 5.37854 11.4683 5.37854H6.1342V26.1815H11.4683C13.4834 26.1815 15.1873 25.737 16.5801 24.848C17.9729 23.9293 19.0249 22.6847 19.7361 21.1141C20.477 19.5139 20.8474 17.721 20.8474 15.7356Z" fill="#0C0C0C"/>
<path d="M42.1291 31.56V26.7593H45.7963V31.56H42.1291Z" fill="#0C0C0C"/>
<path d="M28.1966 30.9615C29.8168 30.6434 31.3035 30.1076 32.6565 29.354C34.9975 28.0501 36.8052 26.2128 38.0795 23.8421C39.3537 21.4714 39.9908 18.6858 39.9908 15.4854C39.9908 12.5813 39.413 9.94387 38.2572 7.57316C37.1015 5.17282 35.368 3.27626 33.0565 1.88347C31.6462 1.01556 30.0262 0.412429 28.1966 0.0740862V5.79361C28.6568 5.97803 29.0914 6.20079 29.5005 6.4619C30.8933 7.32128 31.9601 8.53626 32.7009 10.1069C33.4418 11.6478 33.8122 13.4407 33.8122 15.4854C33.8122 17.4709 33.4418 19.2637 32.7009 20.8639C31.9897 22.4345 30.9377 23.6791 29.5449 24.5978C29.1239 24.8665 28.6745 25.0946 28.1966 25.2821V30.9615Z" fill="#0C0C0C"/>
</svg>
