<svg width="116" height="34" viewBox="0 0 116 34" fill="none" xmlns="http://www.w3.org/2000/svg">
<path d="M3.632 25V7.96H9.992C11.864 7.96 13.424 8.344 14.672 9.112C15.936 9.864 16.888 10.888 17.528 12.184C18.168 13.464 18.488 14.888 18.488 16.456C18.488 18.184 18.136 19.688 17.432 20.968C16.728 22.248 15.736 23.24 14.456 23.944C13.192 24.648 11.704 25 9.992 25H3.632ZM14.48 16.456C14.48 14.952 14.088 13.736 13.304 12.808C12.52 11.88 11.416 11.416 9.992 11.416H7.568V21.544H9.992C10.952 21.544 11.768 21.328 12.44 20.896C13.112 20.448 13.616 19.84 13.952 19.072C14.304 18.304 14.48 17.432 14.48 16.456ZM26.4997 25.24C25.0597 25.24 23.8357 24.936 22.8277 24.328C21.8357 23.72 21.0757 22.92 20.5477 21.928C20.0197 20.936 19.7557 19.864 19.7557 18.712C19.7557 17.544 20.0197 16.464 20.5477 15.472C21.0757 14.48 21.8437 13.68 22.8517 13.072C23.8597 12.464 25.0757 12.16 26.4997 12.16C27.9237 12.16 29.1397 12.464 30.1477 13.072C31.1557 13.68 31.9237 14.48 32.4517 15.472C32.9797 16.464 33.2437 17.544 33.2437 18.712C33.2437 19.864 32.9797 20.936 32.4517 21.928C31.9237 22.92 31.1557 23.72 30.1477 24.328C29.1397 24.936 27.9237 25.24 26.4997 25.24ZM23.6917 18.712C23.6917 19.688 23.9557 20.48 24.4837 21.088C25.0277 21.696 25.6997 22 26.4997 22C27.2837 22 27.9397 21.696 28.4677 21.088C29.0117 20.48 29.2837 19.688 29.2837 18.712C29.2837 17.736 29.0117 16.944 28.4677 16.336C27.9397 15.728 27.2837 15.424 26.4997 15.424C25.6997 15.424 25.0277 15.728 24.4837 16.336C23.9557 16.944 23.6917 17.736 23.6917 18.712ZM41.1721 25.24C39.7641 25.24 38.5481 24.936 37.5241 24.328C36.5161 23.72 35.7401 22.92 35.1961 21.928C34.6681 20.936 34.4041 19.856 34.4041 18.688C34.4041 17.536 34.6681 16.464 35.1961 15.472C35.7401 14.48 36.5161 13.68 37.5241 13.072C38.5321 12.464 39.7481 12.16 41.1721 12.16C42.6121 12.16 43.8281 12.472 44.8201 13.096C45.8281 13.704 46.5801 14.504 47.0761 15.496L43.3321 16.624C42.8361 15.824 42.1081 15.424 41.1481 15.424C40.3641 15.424 39.7001 15.72 39.1561 16.312C38.6121 16.904 38.3401 17.696 38.3401 18.688C38.3401 19.68 38.6121 20.48 39.1561 21.088C39.7001 21.696 40.3641 22 41.1481 22C41.6281 22 42.0681 21.888 42.4681 21.664C42.8681 21.424 43.1641 21.12 43.3561 20.752L47.1001 21.904C46.6361 22.88 45.8921 23.68 44.8681 24.304C43.8601 24.928 42.6281 25.24 41.1721 25.24Z" fill="black"/>
<path d="M49.632 25V7.96H55.992C57.864 7.96 59.424 8.344 60.672 9.112C61.936 9.864 62.888 10.888 63.528 12.184C64.168 13.464 64.488 14.888 64.488 16.456C64.488 18.184 64.136 19.688 63.432 20.968C62.728 22.248 61.736 23.24 60.456 23.944C59.192 24.648 57.704 25 55.992 25H49.632ZM60.48 16.456C60.48 14.952 60.088 13.736 59.304 12.808C58.52 11.88 57.416 11.416 55.992 11.416H53.568V21.544H55.992C56.952 21.544 57.768 21.328 58.44 20.896C59.112 20.448 59.616 19.84 59.952 19.072C60.304 18.304 60.48 17.432 60.48 16.456ZM72.5237 25.24C71.0997 25.24 69.8837 24.944 68.8757 24.352C67.8677 23.76 67.0917 22.976 66.5477 22C66.0197 21.024 65.7557 19.968 65.7557 18.832C65.7557 17.616 66.0197 16.504 66.5477 15.496C67.0757 14.488 67.8437 13.68 68.8517 13.072C69.8597 12.464 71.0837 12.16 72.5237 12.16C73.9477 12.16 75.1637 12.464 76.1717 13.072C77.1797 13.68 77.9397 14.48 78.4517 15.472C78.9797 16.464 79.2437 17.528 79.2437 18.664C79.2437 19.128 79.2117 19.536 79.1477 19.888H69.8357C69.8997 20.736 70.2037 21.384 70.7477 21.832C71.3077 22.264 71.9397 22.48 72.6437 22.48C73.2037 22.48 73.7397 22.344 74.2517 22.072C74.7637 21.8 75.1157 21.432 75.3077 20.968L78.5717 21.88C78.0757 22.872 77.2997 23.68 76.2437 24.304C75.2037 24.928 73.9637 25.24 72.5237 25.24ZM69.7397 17.536H75.2117C75.1317 16.736 74.8357 16.104 74.3237 15.64C73.8277 15.16 73.2117 14.92 72.4757 14.92C71.7397 14.92 71.1157 15.16 70.6037 15.64C70.1077 16.12 69.8197 16.752 69.7397 17.536ZM85.8081 25.24C84.7201 25.24 83.6641 25.064 82.6401 24.712C81.6321 24.344 80.7761 23.824 80.0721 23.152L81.3921 20.728C82.9441 21.864 84.3761 22.432 85.6881 22.432C86.1841 22.432 86.5681 22.352 86.8401 22.192C87.1121 22.032 87.2481 21.784 87.2481 21.448C87.2481 21.096 87.0641 20.848 86.6961 20.704C86.3281 20.544 85.7841 20.36 85.0641 20.152C84.1041 19.832 83.3041 19.52 82.6641 19.216C82.0241 18.912 81.5441 18.544 81.2241 18.112C80.9041 17.68 80.7441 17.104 80.7441 16.384C80.7441 15.12 81.2161 14.104 82.1601 13.336C83.1041 12.552 84.3841 12.16 86.0001 12.16C86.8641 12.16 87.7041 12.296 88.5201 12.568C89.3521 12.84 90.1281 13.296 90.8481 13.936L89.3601 16.336C88.6401 15.84 88.0001 15.48 87.4401 15.256C86.8801 15.032 86.3361 14.92 85.8081 14.92C85.3921 14.92 85.0401 15 84.7521 15.16C84.4641 15.304 84.3201 15.56 84.3201 15.928C84.3201 16.28 84.4801 16.544 84.8001 16.72C85.1201 16.88 85.6161 17.056 86.2881 17.248C87.3121 17.552 88.1681 17.864 88.8561 18.184C89.5601 18.488 90.0801 18.872 90.4161 19.336C90.7681 19.784 90.9441 20.384 90.9441 21.136C90.9441 22.416 90.4801 23.424 89.5521 24.16C88.6241 24.88 87.3761 25.24 85.8081 25.24ZM101.386 25L98.0978 19.96L96.7538 21.328V25H92.9138V7.48H96.7538V17.608L101.026 12.4H105.082L100.546 17.824L105.466 25H101.386ZM112.155 25V21.088H115.299V25H112.155Z" fill="black"/>
</svg>
