<svg width="114" height="83" viewBox="0 0 114 83" fill="none" xmlns="http://www.w3.org/2000/svg">
<path d="M108.222 46.2416C104.921 42.1345 100.734 39.4923 95.6659 38.3138C97.2784 35.8378 98.0823 33.1264 98.0823 30.1796C98.0823 26.0139 96.6084 22.4579 93.6623 19.5103C90.7155 16.5637 87.1592 15.0898 82.9936 15.0898C79.2214 15.0898 75.9593 16.3081 73.2095 18.7447C70.892 13.1646 67.2068 8.64542 62.158 5.18725C57.1081 1.72991 51.4784 0 45.2694 0C36.939 0 29.8259 2.94801 23.9313 8.84259C18.0364 14.7357 15.0898 21.8492 15.0898 30.1802C15.0898 30.7698 15.1292 31.614 15.2077 32.7145C10.6495 34.8367 6.97497 38.0489 4.18511 42.3532C1.39545 46.6549 0 51.401 0 56.5882C0 63.8578 2.58423 70.0767 7.75125 75.2435C12.9185 80.4118 19.1374 82.9956 26.4072 82.9956H90.5404C96.7876 82.9956 102.122 80.7834 106.543 76.364C110.964 71.9433 113.175 66.6091 113.175 60.3604C113.174 55.0557 111.523 50.3474 108.222 46.2416Z" fill="#EFEFEF"/>
</svg>
